<svg width="336" height="118" viewBox="0 0 336 118" fill="none" xmlns="http://www.w3.org/2000/svg">
<g clip-path="url(#clip0_120_226)">
<path d="M65.9714 107.893C65.9714 107.893 66.6895 106.375 67.5144 107.636C68.2441 108.754 71.7108 113.753 73.235 115.948C75.6892 115.307 78.0984 114.503 80.4468 113.539L80.2961 103.401C80.2961 103.401 80.5174 101.731 81.6862 102.674C82.7166 103.505 87.5049 107.149 89.6356 108.77C91.9422 107.295 94.1434 105.658 96.2229 103.871L92.997 94.3839C92.997 94.3839 92.6935 92.7298 94.093 93.2557C95.313 93.7146 100.859 95.6229 103.43 96.5036C105.134 94.4203 106.695 92.2212 108.102 89.9218L102.194 81.4506C102.194 81.4506 101.447 79.9479 102.937 80.0557C104.229 80.1497 110.048 80.4097 112.767 80.5306C113.736 78.0407 114.536 75.4865 115.159 72.8861L106.976 67.0917C106.976 67.0917 105.772 65.9328 107.209 65.5228C108.47 65.1644 114.13 63.3813 116.695 62.5684C116.768 61.3487 116.806 60.1272 116.808 58.9053C116.808 57.5876 116.76 56.2809 116.676 54.9865C114.032 54.2334 108.493 52.668 107.245 52.3512C105.797 51.9841 106.968 50.7924 106.968 50.7924L115.094 44.6703C114.473 42.1283 113.684 39.6313 112.732 37.1962C109.997 37.3149 104.223 37.575 102.935 37.6682C101.445 37.7782 102.192 36.2733 102.192 36.2733L108.072 27.8414C106.677 25.5675 105.131 23.3916 103.445 21.3288C100.97 22.1774 95.1716 24.1732 93.9214 24.643C92.5219 25.1697 92.8232 23.514 92.8232 23.514L96.1126 13.846C94.0642 12.0963 91.8991 10.4911 89.6327 9.04154C87.5013 10.6622 82.713 14.3064 81.6833 15.1375C80.5145 16.0786 80.2925 14.4105 80.2925 14.4105L80.4439 4.27274C78.1023 3.31258 75.7006 2.50936 73.2545 1.86831C71.6992 4.10885 68.3169 8.98545 67.5973 10.0875C66.7732 11.3476 66.0543 9.83112 66.0543 9.83112L63.1168 0.171875C60.3413 -0.0447679 57.5539 -0.0566966 54.7767 0.136183L51.907 9.57108C51.907 9.57108 51.1888 11.0883 50.3654 9.82602C49.6545 8.74071 46.3565 3.98211 44.7731 1.70078C42.2176 2.33645 39.7083 3.14858 37.2628 4.13143L37.4121 14.2357C37.4121 14.2357 37.1907 15.9045 36.0219 14.9619C34.988 14.1279 30.1614 10.4539 28.0445 8.84487C25.8417 10.231 23.7332 11.7645 21.7333 13.4352L24.7407 23.1724C24.7407 23.1724 24.996 24.8353 23.6123 24.2679C22.4096 23.777 16.95 21.7193 14.3983 20.7592C12.5377 22.9762 10.8416 25.3287 9.32364 27.7977L15.1726 36.1866C15.1726 36.1866 15.9203 37.69 14.4321 37.5815C13.1502 37.4876 7.42373 37.2319 4.673 37.1102C3.75048 39.4558 2.97905 41.8592 2.36354 44.3053L10.398 50.3583C10.398 50.3583 11.5689 51.5514 10.1218 51.9185C8.87805 52.2317 3.38019 53.7876 0.721035 54.5429C0.616139 55.9939 0.563228 57.4482 0.562408 58.9031C0.562408 60.0452 0.59846 61.1764 0.66119 62.3018C3.13432 63.0935 9.01937 64.975 10.3064 65.3479C11.7427 65.7638 10.5321 66.9169 10.5321 66.9169L2.18977 72.7776C2.83071 75.4735 3.66079 78.1199 4.67372 80.6967C7.42445 80.5758 13.1509 80.3201 14.4329 80.2269C15.9211 80.1176 15.1734 81.6217 15.1734 81.6217L9.32437 90.0092C10.8421 92.4765 12.5372 94.8277 14.3961 97.044C16.9283 96.0461 22.3707 93.901 23.5661 93.3897C24.9433 92.8033 24.7104 94.4677 24.7104 94.4677L21.7975 104.424C23.7646 106.063 25.836 107.569 27.9983 108.934C30.134 107.309 34.9094 103.675 35.9376 102.846C37.1071 101.905 37.3285 103.572 37.3285 103.572L37.1785 113.641C39.7774 114.691 42.4487 115.547 45.1711 116.204C46.6636 113.903 49.8693 108.951 50.5514 107.832C51.3352 106.546 52.1016 108.038 52.1016 108.038L55.3802 117.711C56.474 117.775 57.5764 117.808 58.6868 117.808C60.139 117.808 61.5796 117.752 63.0058 117.647L65.9714 107.893Z" fill="#007BC3"/>
<path d="M58.6868 9.83771C85.4255 9.83771 107.102 31.8061 107.102 58.9046C107.102 86.0038 85.4255 107.972 58.6868 107.972C31.9467 107.972 10.2711 86.0038 10.2711 58.9046C10.2711 31.8061 31.9452 9.83771 58.6868 9.83771ZM106.713 84.1158C106.713 83.8452 106.766 83.5772 106.869 83.3273C106.972 83.0773 107.122 82.8503 107.312 82.6591C107.502 82.468 107.727 82.3164 107.974 82.2132C108.222 82.1099 108.487 82.057 108.755 82.0574C109.022 82.0577 109.287 82.1113 109.533 82.215C109.78 82.3186 110.004 82.4704 110.193 82.6616C110.381 82.8527 110.531 83.0795 110.632 83.3291C110.734 83.5786 110.786 83.8459 110.786 84.1158C110.787 84.3864 110.736 84.6547 110.635 84.9053C110.533 85.1559 110.384 85.3838 110.196 85.576C110.007 85.7682 109.783 85.9209 109.535 86.0253C109.288 86.1297 109.023 86.1838 108.755 86.1844C108.486 86.1845 108.22 86.1311 107.972 86.0271C107.724 85.9231 107.499 85.7706 107.309 85.5784C107.119 85.3862 106.969 85.1581 106.867 84.9071C106.765 84.6561 106.712 84.3872 106.713 84.1158ZM110.541 84.1158C110.546 83.8755 110.503 83.6366 110.415 83.4132C110.328 83.1897 110.197 82.9862 110.03 82.8146C109.864 82.6429 109.665 82.5065 109.445 82.4134C109.226 82.3203 108.991 82.2724 108.753 82.2724C108.515 82.2724 108.279 82.3203 108.06 82.4134C107.84 82.5065 107.642 82.6429 107.475 82.8146C107.308 82.9862 107.178 83.1897 107.09 83.4132C107.002 83.6366 106.959 83.8755 106.964 84.1158C106.964 85.1268 107.764 85.9368 108.755 85.9368C108.991 85.9362 109.224 85.8886 109.442 85.7967C109.659 85.7048 109.857 85.5703 110.023 85.4011C110.189 85.2319 110.32 85.0313 110.409 84.8107C110.498 84.5901 110.543 84.354 110.541 84.1158ZM109.767 85.2718H109.437L108.785 84.2083H108.274V85.2718H107.998V82.9642H108.989C109.181 82.9642 109.372 82.9759 109.543 83.0793C109.713 83.1769 109.798 83.3808 109.798 83.5753C109.798 84.0291 109.484 84.1966 109.079 84.2083L109.767 85.2718ZM108.702 83.9861C109.021 83.9861 109.517 84.04 109.517 83.571C109.517 83.2148 109.209 83.1703 108.924 83.1703H108.274V83.9861H108.702Z" fill="#007BC3"/>
<path d="M13.926 75.5083L31.6496 38.7142H48.857V75.6846H38.8779V66.0916H29.4123L24.5958 75.6846L13.926 75.5083ZM38.8772 46.4745L31.9943 60.5129H38.8772V46.4745ZM98.8424 52.4036H78.7963V61.5588H98.8424V52.4036ZM98.9282 66.0931H78.7963V75.6846H98.9282V66.0931Z" fill="white"/>
<path d="M61.3935 38.7295C61.3935 38.7295 50.5298 38.6151 50.5298 49.6248C50.5298 60.6374 60.7136 61.3447 60.7136 61.3447H63.915C63.915 61.3447 66.882 61.2471 67.001 63.1875C67.1986 66.474 64.7132 66.4493 63.7982 66.4493H50.5276V75.8376H63.7953C63.7953 75.8376 76.944 76.2345 77.1949 63.3718C77.4011 52.6855 64.375 51.8938 64.375 51.8938C64.375 51.8938 60.9451 51.8064 60.9451 49.2788C60.9451 49.2788 61.0583 47.6552 62.7736 47.6552H98.9311V38.7295H61.3935Z" fill="white"/>
<path d="M179.314 19.9434H181.223V32.0042H179.177L175.184 23.4055H175.156V32.0035H173.248V19.9434H175.402L179.287 28.3418H179.314V19.9434ZM188.912 30.259C188.912 31.3159 189.102 31.5512 189.335 31.6524V32.0042H187.276C187.166 31.5839 187.139 31.4492 187.099 30.9466C186.661 31.5031 186.048 32.2388 184.752 32.2388C183.662 32.2388 182.544 31.4827 182.544 29.6355C182.544 27.891 183.444 26.9994 184.657 26.7816L186.375 26.4611C186.676 26.4138 187.044 26.2623 187.044 25.7553C187.044 24.7647 186.28 24.7144 185.79 24.7144C184.835 24.7144 184.672 25.4377 184.617 25.9571H182.776C182.994 23.219 184.535 22.8344 186.021 22.8344C187.044 22.8344 188.912 23.219 188.912 25.4202V30.259ZM187.044 27.6542C186.853 27.8385 186.538 27.9908 185.748 28.1401C185.04 28.2916 184.455 28.5101 184.455 29.484C184.455 30.3071 184.972 30.5598 185.34 30.5598C185.567 30.5591 185.791 30.5127 186 30.4235C186.209 30.3342 186.399 30.2038 186.557 30.0399C186.716 29.8759 186.841 29.6817 186.924 29.4686C187.008 29.2555 187.048 29.0277 187.044 28.7985V27.6542ZM192.755 23.0697H193.94V24.7501H192.755V29.6027C192.755 30.122 192.767 30.3253 193.545 30.3253C193.668 30.3253 193.805 30.3085 193.94 30.2918V32.072C193.641 32.0887 193.341 32.1055 193.041 32.1055H192.795C191.146 32.1055 190.847 31.3334 190.847 30.1738V24.7501H189.865V23.0697H190.847V20.6493H192.755V23.0697ZM197.119 22.0099H195.21V19.8269H197.119V22.0099ZM197.119 32.0035H195.21V23.069H197.119V32.0035ZM202.232 32.2402C200.283 32.2402 198.524 30.7616 198.524 27.5377C198.524 24.3116 200.283 22.8344 202.232 22.8344C204.181 22.8344 205.939 24.3116 205.939 27.5377C205.939 30.7616 204.181 32.2402 202.232 32.2402ZM202.232 24.8142C200.76 24.8142 200.487 26.3934 200.487 27.5377C200.487 28.6813 200.76 30.259 202.232 30.259C203.705 30.259 203.977 28.6798 203.977 27.5377C203.977 26.3948 203.705 24.8142 202.232 24.8142ZM213.832 32.0042H211.924V26.5777C211.924 25.9236 211.896 24.815 210.683 24.815C209.837 24.815 209.184 25.5208 209.184 26.8814V32.0035H207.274V23.0697H209.102V24.3779H209.129C209.387 23.8418 209.932 22.833 211.31 22.833C212.728 22.833 213.832 23.8586 213.832 25.8238V32.0042ZM221.482 30.259C221.482 31.3159 221.672 31.5512 221.905 31.6524V32.0042H219.846C219.736 31.5839 219.709 31.4492 219.668 30.9466C219.231 31.5031 218.618 32.2388 217.323 32.2388C216.232 32.2388 215.116 31.4827 215.116 29.6355C215.116 27.891 216.014 26.9994 217.228 26.7816L218.946 26.4611C219.246 26.4138 219.613 26.2623 219.613 25.7553C219.613 24.7647 218.851 24.7144 218.36 24.7144C217.405 24.7144 217.242 25.4377 217.187 25.9571H215.346C215.564 23.219 217.104 22.8344 218.59 22.8344C219.613 22.8344 221.482 23.219 221.482 25.4202V30.259ZM219.613 27.6542C219.423 27.8385 219.109 27.9908 218.318 28.1401C217.61 28.2916 217.024 28.5101 217.024 29.484C217.024 30.3071 217.542 30.5598 217.91 30.5598C218.137 30.5592 218.361 30.5129 218.57 30.4237C218.779 30.3344 218.969 30.204 219.127 30.0401C219.286 29.8761 219.41 29.6819 219.494 29.4687C219.577 29.2556 219.618 29.0277 219.613 28.7985V27.6542ZM225.147 19.9449H223.239V32.002H225.147V19.9449ZM232.796 19.9449H230.75V32.002H232.796V19.9449ZM241.113 32.0042H239.205V26.5777C239.205 25.9236 239.177 24.815 237.964 24.815C237.118 24.815 236.465 25.5208 236.465 26.8814V32.0035H234.555V23.0697H236.382V24.3779H236.41C236.668 23.8418 237.213 22.833 238.591 22.833C240.009 22.833 241.113 23.8586 241.113 25.8238V32.0042ZM246.987 25.7903C246.905 25.2192 246.742 24.6146 245.708 24.6146C244.671 24.6146 244.533 25.1027 244.533 25.4873C244.533 26.9003 249.073 25.8733 249.073 29.1657C249.073 31.7689 247.028 32.2402 245.896 32.2402C244.248 32.2402 242.46 31.5337 242.407 29.1496H244.371C244.371 29.9035 244.751 30.4607 245.951 30.4607C246.933 30.4607 247.165 29.8722 247.165 29.5357C247.165 28.0388 242.663 29.1664 242.663 25.8223C242.663 24.5134 243.331 22.8344 245.597 22.8344C247.015 22.8344 248.706 23.2693 248.856 25.7903H246.987ZM252.604 23.0697H253.79V24.7501H252.604V29.6027C252.604 30.122 252.617 30.3253 253.397 30.3253C253.517 30.3253 253.656 30.3085 253.792 30.2918V32.072C253.493 32.0887 253.192 32.1055 252.891 32.1055H252.646C250.998 32.1055 250.697 31.3334 250.697 30.1738V24.7501H249.716V23.0697H250.697V20.6493H252.606V23.0697H252.604ZM256.966 22.0099H255.058V19.8269H256.966V22.0099ZM256.966 32.0035H255.058V23.069H256.966V32.0035ZM260.934 23.0697H262.119V24.7501H260.934V29.6027C260.934 30.122 260.948 30.3253 261.726 30.3253C261.846 30.3253 261.986 30.3085 262.121 30.2918V32.072C261.823 32.0887 261.521 32.1055 261.223 32.1055H260.975C259.327 32.1055 259.026 31.3334 259.026 30.1738V24.7501H258.042V23.0697H259.025V20.6493H260.934V23.0697ZM269.878 32.0035H268.052V30.7455H268.023C267.589 31.7012 266.824 32.2388 265.816 32.2388C264.384 32.2388 263.347 31.2314 263.347 28.9464V23.0697H265.255V28.6128C265.255 29.9895 265.909 30.2575 266.496 30.2575C267.124 30.2575 267.969 29.8234 267.969 28.2253V23.0697H269.878V32.0035ZM273.803 23.0697H274.987V24.7501H273.803V29.6027C273.803 30.122 273.818 30.3253 274.594 30.3253C274.717 30.3253 274.854 30.3085 274.989 30.2918V32.072C274.691 32.0887 274.389 32.1055 274.091 32.1055H273.844C272.195 32.1055 271.897 31.3334 271.897 30.1738V24.7501H270.915V23.0697H271.897V20.6493H273.805V23.0697H273.803ZM282.433 29.3842C281.929 31.5344 280.484 32.2388 279.242 32.2388C277.198 32.2388 275.631 31.0296 275.631 27.3527C275.631 26.2768 275.928 22.8344 279.104 22.8344C280.535 22.8344 282.514 23.6736 282.514 27.7555V28.175H277.536C277.589 28.8466 277.701 30.3602 279.24 30.3602C279.773 30.3602 280.318 30.0223 280.468 29.3864H282.433V29.3842ZM280.552 26.6447C280.442 25.2025 279.694 24.7625 279.079 24.7625C278.178 24.7625 277.703 25.4691 277.592 26.6447H280.552ZM289.782 32.0035H287.873V24.7479H286.823V23.0697H287.873V22.3464C287.873 20.4999 288.69 19.7934 290 19.7934C290.559 19.7934 290.816 19.8101 290.979 19.8269V21.7251H290.452C289.799 21.7251 289.783 21.9771 289.783 22.7157V23.0675H291.024V24.7458H289.783V32.0035H289.782ZM295.15 32.2402C293.203 32.2402 291.44 30.7616 291.44 27.5377C291.44 24.3116 293.203 22.8344 295.15 22.8344C297.099 22.8344 298.859 24.3116 298.859 27.5377C298.859 30.7616 297.099 32.2402 295.15 32.2402ZM295.15 24.8142C293.678 24.8142 293.406 26.3934 293.406 27.5377C293.406 28.6813 293.678 30.259 295.15 30.259C296.621 30.259 296.893 28.6798 296.893 27.5377C296.893 26.3948 296.621 24.8142 295.15 24.8142ZM300.181 23.0697H302.007V24.6146H302.037C302.432 23.7071 302.867 22.8344 304.027 22.8344C304.148 22.8344 304.273 22.8512 304.394 22.868V25.2527C304.231 25.2192 304.027 25.2192 303.848 25.2192C302.362 25.2192 302.089 26.3621 302.089 27.3512V32.0042H300.181V23.0697ZM147.887 38.5758H153.653L161.593 53.167H156.667L155.289 50.5885H146.311L145.014 53.167H140.066L147.887 38.5758ZM147.968 47.4418H153.633L150.76 41.9606L147.968 47.4418ZM163.169 38.5758H167.598V46.9997C167.598 48.8542 168.256 49.5804 170.072 49.5804H174.462C176.277 49.5804 176.936 48.852 176.936 46.9997V38.5758H181.364V47.967C181.364 51.5959 179.508 53.3258 175.439 53.3258H169.095C165.024 53.3258 163.169 51.5937 163.169 47.967V38.5758ZM183.301 38.5758H200.178V42.201H193.955V53.1655H189.526V42.201H183.301V38.5758ZM201.795 43.6928C201.795 39.4185 204.17 38.4134 208.159 38.4134H215.261C219.252 38.4134 221.626 39.4207 221.626 43.6928V48.0442C221.626 52.3199 219.252 53.3258 215.261 53.3258H208.159C204.17 53.3258 201.795 52.3184 201.795 48.0449V43.6928ZM206.344 46.6559C206.344 48.7748 206.783 49.5789 208.879 49.5789H214.544C216.639 49.5789 217.078 48.7726 217.078 46.6559V45.0847C217.078 43.2696 216.639 42.1624 214.305 42.1624H209.117C206.783 42.1624 206.344 43.2696 206.344 45.0847V46.6559ZM224.299 38.5758H231.105L236.109 47.967L241.117 38.5758H247.92V53.1655H243.612V42.6854H243.573L237.765 53.1655H234.453L228.649 42.6854H228.608V53.1655H224.299V38.5758ZM250.593 43.6928C250.593 39.4185 252.968 38.4134 256.958 38.4134H264.06C268.053 38.4134 270.426 39.4207 270.426 43.6928V48.0442C270.426 52.3199 268.053 53.3258 264.06 53.3258H256.958C252.968 53.3258 250.593 52.3184 250.593 48.0449V43.6928ZM255.144 46.6559C255.144 48.7748 255.581 49.5789 257.679 49.5789H263.344C265.441 49.5789 265.878 48.7726 265.878 46.6559V45.0847C265.878 43.2696 265.441 42.1624 263.105 42.1624H257.915C255.581 42.1624 255.142 43.2696 255.142 45.0847V46.6559H255.144ZM272.04 38.5758H288.919V42.201H282.694V53.1655H278.265V42.201H272.04V38.5758ZM295.524 38.5736H291.096V53.167H295.524V38.5736ZM297.359 38.5758H302.206L307.852 49.4165L313.499 38.5758H318.348L310.587 53.1655H305.118L297.359 38.5758ZM319.942 38.5758H335.744V41.9628H324.37V44.2973H335.146V47.3216H324.37V49.6598H336V53.1655H319.942V38.5758ZM175.259 68.5442H179.688C179.708 70.0956 180.327 70.2151 181.604 70.2151H187.03C187.969 70.2151 188.926 70.1131 188.926 68.9856C188.926 67.716 188.408 67.6366 182.702 67.6366C176.037 67.6366 175.28 66.8281 175.28 63.2444C175.28 60.6003 175.52 58.5673 181.105 58.5673H187.29C192.397 58.5673 192.876 60.3213 192.876 62.8794V63.3441H188.446C188.446 62.2756 188.327 61.8334 186.293 61.8334H181.386C180.389 61.8334 179.71 62.1773 179.71 62.961C179.71 64.2328 180.25 64.2721 184.997 64.2517C191.879 64.2313 193.477 64.6545 193.477 68.9062C193.477 72.8366 192.159 73.4834 186.274 73.4834H180.907C176.877 73.4834 175.261 72.7186 175.261 69.5537V68.5442H175.259ZM196.207 58.7298H212.009V62.1168H200.636V64.4528H211.409V67.4756H200.636V69.8137H212.267V73.321H196.207V58.7298ZM214.942 58.7298H228.308C231.721 58.7298 232.638 60.4415 232.638 63.063V63.9888C232.638 65.9467 232.198 67.0946 230.164 67.5768V67.6162C231.482 67.858 232.578 68.4422 232.578 70.84V73.3188H228.149V71.5684C228.149 70.0359 227.71 69.5289 226.333 69.5289H219.37V73.3188H214.942V58.7298ZM219.37 65.9044H226.693C227.889 65.9044 228.329 65.4201 228.329 64.3719V63.889C228.329 62.599 227.69 62.3564 226.293 62.3564H219.37V65.9044ZM234.232 58.7298H239.08L244.728 69.5697L250.373 58.7298H255.224L247.461 73.321H241.994L234.232 58.7298ZM261.487 58.7298H257.059V73.321H261.487V58.7298ZM264.398 63.8467C264.398 59.5747 266.772 58.5688 270.765 58.5688H275.971C282.277 58.5688 283.093 59.9382 283.055 64.0703H278.626V63.6675C278.626 62.6187 277.867 62.3156 276.549 62.3156H271.72C269.387 62.3156 268.948 63.4272 268.948 65.2387V66.8135C268.948 68.9287 269.385 69.7365 271.48 69.7365H276.209C278.205 69.7365 278.802 69.5326 278.802 67.7189H283.232V69.089C283.232 71.5481 282.355 73.4819 277.905 73.4819H270.765C266.772 73.4819 264.398 72.4738 264.398 68.204V63.8467ZM285.905 58.7298H301.707V62.1168H290.334V64.4528H301.109V67.4756H290.334V69.8137H301.965V73.321H285.905V58.7298ZM142.989 78.8837H158.791V82.27H147.417V84.6067H158.19V87.631H147.417V89.9677H159.049V93.4749H142.989V78.8837ZM167.449 86.1597L160.865 78.8815H166.591L171.08 83.9818L175.569 78.8815H181.294L174.711 86.1597L181.794 93.4764H175.848L171.08 88.1744L166.313 93.4764H160.367L167.449 86.1597ZM183.11 84.0022C183.11 79.7301 185.484 78.7242 189.474 78.7242H194.681C200.985 78.7242 201.805 80.0921 201.764 84.2258H197.334V83.823C197.334 82.7748 196.577 82.4718 195.259 82.4718H190.431C188.099 82.4718 187.659 83.5826 187.659 85.3941V86.9689C187.659 89.0842 188.099 89.8898 190.192 89.8898H194.92C196.915 89.8898 197.515 89.6887 197.515 87.8728H201.944V89.2451C201.944 91.7035 201.066 93.6374 196.617 93.6374H189.474C185.484 93.6374 183.11 92.63 183.11 88.3594V84.0022ZM204.618 78.8837H220.42V82.27H209.047V84.6067H219.82V87.631H209.047V89.9677H220.68V93.4749H204.618V78.8837ZM223.352 78.8837H227.78V89.7259H237.737V93.4749H223.352V78.8837ZM239.61 78.8837H244.038V89.7259H253.995V93.4749H239.61V78.8837ZM255.869 78.8837H271.671V82.27H260.3V84.6067H271.073V87.631H260.3V89.9677H271.931V93.4749H255.869V78.8837ZM274.603 78.8837H281.465L289.786 89.4855H289.824V78.8837H294.255V93.4749H287.39L279.071 82.8746H279.029V93.4749H274.603V78.8837ZM296.927 84.0022C296.927 79.7301 299.302 78.7242 303.293 78.7242H308.501C314.805 78.7242 315.624 80.0921 315.583 84.2258H311.155V83.823C311.155 82.7748 310.398 82.4718 309.08 82.4718H304.25C301.918 82.4718 301.476 83.5826 301.476 85.3941V86.9689C301.476 89.0842 301.915 89.8898 304.011 89.8898H308.739C310.734 89.8898 311.332 89.6887 311.332 87.8728H315.761V89.2451C315.761 91.7035 314.885 93.6374 310.434 93.6374H303.293C299.302 93.6374 296.927 92.63 296.927 88.3594V84.0022ZM318.436 78.8837H334.235V82.27H322.864V84.6067H333.636V87.631H322.864V89.9677H334.493V93.4749H318.436V78.8837Z" fill="#007BC3"/>
</g>
<defs>
<clipPath id="clip0_120_226">
<rect width="336" height="118" fill="white"/>
</clipPath>
</defs>
</svg>
