<svg width="469" height="56" viewBox="0 0 469 56" fill="none" xmlns="http://www.w3.org/2000/svg">
<g clip-path="url(#clip0_181_192)">
<rect width="469" height="56" fill="#EFEEEE"/>
<path d="M17.6416 48V40.32H1.80163V34.08L17.1616 12.24H25.0816V34.08H30.6016V40.32H25.0816V48H17.6416ZM7.22563 36.768L5.83363 34.08H17.6416V18L19.5136 18.576L7.22563 36.768ZM38.2389 48V40.8H45.4389V48H38.2389ZM55.0006 48L69.4486 18.48H52.9366V12.24H77.2726V18.48L63.2566 48H55.0006Z" fill="#FEA500"/>
<path d="M137.209 3.60489C137.944 2.12477 140.056 2.12478 140.791 3.60489L146.797 15.6929C147.088 16.279 147.648 16.6856 148.295 16.7814L161.648 18.7581C163.283 19.0001 163.935 21.0081 162.755 22.1649L153.114 31.6124C152.647 32.0705 152.433 32.7283 152.542 33.3736L154.788 46.6833C155.063 48.313 153.355 49.554 151.89 48.7888L139.926 42.5397C139.346 42.2366 138.654 42.2366 138.074 42.5397L126.11 48.7888C124.645 49.554 122.937 48.313 123.212 46.6833L125.458 33.3736C125.567 32.7283 125.353 32.0705 124.886 31.6124L115.245 22.1649C114.065 21.0081 114.717 19.0001 116.352 18.7581L129.705 16.7814C130.352 16.6856 130.912 16.279 131.203 15.6929L137.209 3.60489Z" fill="#FEA500"/>
<path d="M193.209 3.60489C193.944 2.12477 196.056 2.12478 196.791 3.60489L202.797 15.6929C203.088 16.279 203.648 16.6856 204.295 16.7814L217.648 18.7581C219.283 19.0001 219.935 21.0081 218.755 22.1649L209.114 31.6124C208.647 32.0705 208.433 32.7283 208.542 33.3736L210.788 46.6833C211.063 48.313 209.355 49.554 207.89 48.7888L195.926 42.5397C195.346 42.2366 194.654 42.2366 194.074 42.5397L182.11 48.7888C180.645 49.554 178.937 48.313 179.212 46.6833L181.458 33.3736C181.567 32.7283 181.353 32.0705 180.886 31.6124L171.245 22.1649C170.065 21.0081 170.717 19.0001 172.352 18.7581L185.705 16.7814C186.352 16.6856 186.912 16.279 187.203 15.6929L193.209 3.60489Z" fill="#FEA500"/>
<path d="M249.209 3.60489C249.944 2.12477 252.056 2.12478 252.791 3.60489L258.797 15.6929C259.088 16.279 259.648 16.6856 260.295 16.7814L273.648 18.7581C275.283 19.0001 275.935 21.0081 274.755 22.1649L265.114 31.6124C264.647 32.0705 264.433 32.7283 264.542 33.3736L266.788 46.6833C267.063 48.313 265.355 49.554 263.89 48.7888L251.926 42.5397C251.346 42.2366 250.654 42.2366 250.074 42.5397L238.11 48.7888C236.645 49.554 234.937 48.313 235.212 46.6833L237.458 33.3736C237.567 32.7283 237.353 32.0705 236.886 31.6124L227.245 22.1649C226.065 21.0081 226.717 19.0001 228.352 18.7581L241.705 16.7814C242.352 16.6856 242.912 16.279 243.203 15.6929L249.209 3.60489Z" fill="#FEA500"/>
<path d="M305.209 3.60489C305.944 2.12477 308.056 2.12478 308.791 3.60489L314.797 15.6929C315.088 16.279 315.648 16.6856 316.295 16.7814L329.648 18.7581C331.283 19.0001 331.935 21.0081 330.755 22.1649L321.114 31.6124C320.647 32.0705 320.433 32.7283 320.542 33.3736L322.788 46.6833C323.063 48.313 321.355 49.554 319.89 48.7888L307.926 42.5397C307.346 42.2366 306.654 42.2366 306.074 42.5397L294.11 48.7888C292.645 49.554 290.937 48.313 291.212 46.6833L293.458 33.3736C293.567 32.7283 293.353 32.0705 292.886 31.6124L283.245 22.1649C282.065 21.0081 282.717 19.0001 284.352 18.7581L297.705 16.7814C298.352 16.6856 298.912 16.279 299.203 15.6929L305.209 3.60489Z" fill="#FEA500"/>
<path d="M361.209 3.60489C361.944 2.12477 364.056 2.12478 364.791 3.60489L370.797 15.6929C371.088 16.279 371.648 16.6856 372.295 16.7814L385.648 18.7581C387.283 19.0001 387.935 21.0081 386.755 22.1649L377.114 31.6124C376.647 32.0705 376.433 32.7283 376.542 33.3736L378.788 46.6833C379.063 48.313 377.355 49.554 375.89 48.7888L363.926 42.5397C363.346 42.2366 362.654 42.2366 362.074 42.5397L350.11 48.7888C348.645 49.554 346.937 48.313 347.212 46.6833L349.458 33.3736C349.567 32.7283 349.353 32.0705 348.886 31.6124L339.245 22.1649C338.065 21.0081 338.717 19.0001 340.352 18.7581L353.705 16.7814C354.352 16.6856 354.912 16.279 355.203 15.6929L361.209 3.60489Z" fill="#FEA500"/>
<mask id="mask0_181_192" style="mask-type:alpha" maskUnits="userSpaceOnUse" x="335" y="0" width="56" height="56">
<path d="M361.209 3.60489C361.944 2.12477 364.056 2.12478 364.791 3.60489L370.797 15.6929C371.088 16.279 371.648 16.6856 372.295 16.7814L385.648 18.7581C387.283 19.0001 387.935 21.0081 386.755 22.1649L377.114 31.6124C376.647 32.0705 376.433 32.7283 376.542 33.3736L378.788 46.6833C379.063 48.313 377.355 49.554 375.89 48.7888L363.926 42.5397C363.346 42.2366 362.654 42.2366 362.074 42.5397L350.11 48.7888C348.645 49.554 346.937 48.313 347.212 46.6833L349.458 33.3736C349.567 32.7283 349.353 32.0705 348.886 31.6124L339.245 22.1649C338.065 21.0081 338.717 19.0001 340.352 18.7581L353.705 16.7814C354.352 16.6856 354.912 16.279 355.203 15.6929L361.209 3.60489Z" fill="#FEA500"/>
</mask>
<g mask="url(#mask0_181_192)">
<path d="M369 0H397V50H369V0Z" fill="#6A6A6A"/>
</g>
<path d="M411.581 46.44C409.789 44.3493 408.434 42.0773 407.517 39.624C406.621 37.1707 406.173 34.5573 406.173 31.784C406.173 29.0107 406.621 26.3973 407.517 23.944C408.413 21.4907 409.768 19.2293 411.581 17.16H415.101C413.565 19.4427 412.413 21.8107 411.645 24.264C410.898 26.696 410.525 29.2027 410.525 31.784C410.525 34.3653 410.909 36.8827 411.677 39.336C412.445 41.7893 413.586 44.1573 415.101 46.44H411.581ZM425.626 41.384C424.325 41.384 423.087 41.1493 421.914 40.68C420.762 40.1893 419.77 39.5067 418.938 38.632C418.127 37.736 417.573 36.68 417.274 35.464L421.082 34.12C421.466 35.208 422.053 36.04 422.842 36.616C423.631 37.1707 424.559 37.448 425.626 37.448C426.479 37.448 427.215 37.288 427.834 36.968C428.474 36.648 428.975 36.1893 429.338 35.592C429.701 34.9733 429.882 34.248 429.882 33.416C429.882 32.584 429.701 31.88 429.338 31.304C428.997 30.7067 428.506 30.248 427.866 29.928C427.226 29.608 426.469 29.448 425.594 29.448C425.189 29.448 424.762 29.4907 424.314 29.576C423.887 29.6613 423.503 29.7893 423.162 29.96L422.17 27.88L428.346 20.84H418.618V17.16H433.242V20.584L427.034 27.848L427.098 26.216C428.527 26.2373 429.775 26.5467 430.842 27.144C431.909 27.7413 432.741 28.5627 433.338 29.608C433.935 30.6533 434.234 31.88 434.234 33.288C434.234 34.824 433.861 36.2107 433.114 37.448C432.367 38.664 431.343 39.624 430.042 40.328C428.741 41.032 427.269 41.384 425.626 41.384ZM447.909 41V35.752H436.965V32.104L447.653 17.16H452.197V32.104H455.685V35.752H452.197V41H447.909ZM440.165 33.672L439.397 32.104H447.909V20.584L449.029 20.936L440.165 33.672ZM457.934 46.44C459.449 44.1573 460.579 41.7893 461.326 39.336C462.094 36.8827 462.478 34.3653 462.478 31.784C462.478 29.2027 462.094 26.696 461.326 24.264C460.579 21.8107 459.449 19.4427 457.934 17.16H461.454C463.246 19.2293 464.59 21.4907 465.486 23.944C466.382 26.3973 466.83 29.0107 466.83 31.784C466.83 34.5573 466.382 37.1707 465.486 39.624C464.59 42.0773 463.246 44.3493 461.454 46.44H457.934Z" fill="#6A6A6A"/>
</g>
<defs>
<clipPath id="clip0_181_192">
<rect width="469" height="56" fill="white"/>
</clipPath>
</defs>
</svg>
