<svg width="50" height="48" viewBox="0 0 50 48" fill="none" xmlns="http://www.w3.org/2000/svg">
<path d="M25.0391 48C12.6175 48 0 45.3992 0 40.4271C0 35.9904 9.71785 34.1546 13.8714 33.5809H14.0282C14.616 33.5809 15.1254 34.0016 15.2037 34.5753C15.2429 34.8813 15.1645 35.1873 14.9686 35.4167C14.7727 35.6462 14.4984 35.8375 14.1849 35.8757C5.52507 37.0996 2.31191 39.3179 2.31191 40.4653C2.31191 42.6072 11.1677 45.7434 25 45.7434C38.8322 45.7434 47.688 42.6072 47.688 40.4653C47.688 39.3179 44.4357 37.0996 35.6974 35.8757C35.3839 35.8375 35.1097 35.6845 34.9137 35.4167C34.7178 35.1873 34.6394 34.8813 34.6786 34.5753C34.757 34.0016 35.2664 33.5809 35.8542 33.5809H36.0109C40.2037 34.1546 49.9999 35.9904 49.9999 40.4271C50.0391 45.361 37.4608 48 25.0391 48ZM24.2163 39.8916C23.6285 39.3562 10.0705 26.8494 10.0705 14.5721C10.0705 6.54024 16.7711 0 25 0C33.2288 0 39.9294 6.54024 39.9294 14.5721C39.9294 26.5052 26.3714 39.3179 25.7837 39.8534L25 40.6183L24.2163 39.8916ZM25.0391 2.29482C18.1034 2.29482 12.4608 7.80239 12.4608 14.5721C12.4608 24.1721 22.0611 34.4606 25.0391 37.4056C28.0564 34.3841 37.6567 23.9044 37.6567 14.5721C37.6175 7.84064 31.9749 2.29482 25.0391 2.29482ZM25.0391 21.0741C21.1207 21.0741 17.9467 17.9761 17.9467 14.1514C17.9467 10.3267 21.1207 7.22869 25.0391 7.22869C28.9576 7.22869 32.1316 10.3267 32.1316 14.1514C32.1316 17.9761 28.9576 21.0741 25.0391 21.0741ZM25.0391 9.52351C22.4138 9.52351 20.2978 11.5888 20.2978 14.1514C20.2978 16.7139 22.4138 18.7793 25.0391 18.7793C27.6645 18.7793 29.7805 16.7139 29.7805 14.1514C29.7805 11.5888 27.6253 9.52351 25.0391 9.52351Z" fill="#194774"/>
</svg>
