<svg width="45" height="45" viewBox="0 0 45 45" fill="none" xmlns="http://www.w3.org/2000/svg">
<path d="M43 11.1111V2M43 2H33.8889M43 2L29.3333 15.6667M37.3056 43C17.8068 43 2 27.1931 2 7.69444C2 6.81472 2.03218 5.94251 2.09542 5.07894C2.16799 4.08786 2.20427 3.59233 2.46398 3.14123C2.6791 2.76763 3.06031 2.41333 3.44862 2.22607C3.91746 2 4.46428 2 5.55791 2H11.9751C12.8948 2 13.3546 2 13.7488 2.15136C14.097 2.28506 14.4071 2.50223 14.6517 2.78378C14.9287 3.10251 15.0858 3.53468 15.4001 4.39898L18.0563 11.7034C18.4219 12.709 18.6048 13.2118 18.5738 13.6889C18.5465 14.1095 18.4027 14.5143 18.159 14.8582C17.8826 15.2482 17.4239 15.5235 16.5063 16.074L13.3889 17.9444C16.1265 23.978 21.0197 28.8775 27.0556 31.6111L28.9261 28.4937C29.4766 27.576 29.7518 27.1173 30.1417 26.841C30.4857 26.5973 30.8904 26.4535 31.3111 26.4262C31.7881 26.3952 32.291 26.5781 33.2967 26.9437L40.601 29.5998C41.4652 29.9142 41.8976 30.0713 42.2162 30.3483C42.4977 30.5929 42.715 30.9029 42.8485 31.2512C43 31.6453 43 32.1052 43 33.0249V39.4421C43 40.5357 43 41.0826 42.7738 41.5513C42.5866 41.9397 42.2324 42.321 41.8588 42.536C41.4076 42.7957 40.9122 42.8319 39.9211 42.9046C39.0574 42.9679 38.1852 43 37.3056 43Z" stroke="#194774" stroke-width="2.5" stroke-linecap="round" stroke-linejoin="round"/>
</svg>
