<svg width="382" height="83" viewBox="0 0 382 83" fill="none" xmlns="http://www.w3.org/2000/svg">
<path d="M0 35.8178L7.49675 0.555314H22.4347C24.73 0.555314 26.7291 0.795908 28.4321 1.27722C30.1721 1.72148 31.5974 2.48045 32.7081 3.55402C33.8558 4.62758 34.7072 6.03447 35.2625 7.77441C35.8549 9.51436 36.151 11.6432 36.151 14.1605C36.151 16.8631 35.7994 19.51 35.0959 22.1015C34.4295 24.6931 33.3004 27.0068 31.7085 29.043C30.1165 31.0792 28.0249 32.7265 25.4334 33.9853C22.879 35.207 19.7137 35.8178 15.9375 35.8178H0ZM15.2156 31.9306C16.4373 31.9306 17.5109 31.4308 18.4365 30.4313C19.399 29.3946 20.2135 28.0989 20.8798 26.5441C21.5833 24.9521 22.1571 23.2122 22.6013 21.3241C23.0826 19.399 23.4528 17.548 23.712 15.7709C24.0081 13.9939 24.2117 12.402 24.3228 10.9952C24.4709 9.58848 24.5449 8.58892 24.5449 7.99654C24.5449 6.84884 24.3043 5.96034 23.823 5.33102C23.3788 4.66465 22.5829 4.33146 21.4352 4.33146H18.7697L12.8278 31.9306H15.2156ZM40.7662 13.9939C42.6543 13.0684 44.5794 12.402 46.5415 11.9948C48.5406 11.5506 50.7619 11.3284 53.2053 11.3284C55.5746 11.3284 57.5367 11.5135 59.0916 11.8837C60.6465 12.254 61.8866 12.7907 62.8122 13.4942C63.7378 14.1976 64.3856 15.0306 64.7558 15.9931C65.1261 16.9556 65.3111 18.0477 65.3111 19.2694C65.3111 19.9729 65.2556 20.7317 65.1445 21.5462C65.0705 22.3607 64.9779 23.0456 64.8669 23.6009L62.2569 35.8178H53.3163L52.3168 32.2638H51.9836C50.7989 33.5595 49.4106 34.5591 47.8187 35.2625C46.2638 35.9289 44.7089 36.2621 43.1541 36.2621C42.2656 36.2621 41.3955 36.1325 40.5441 35.8734C39.6926 35.6142 38.9337 35.2254 38.2673 34.7072C37.6009 34.1519 37.0641 33.467 36.6569 32.6525C36.2497 31.8011 36.046 30.7829 36.046 29.5983C36.046 27.6732 36.5643 26.1553 37.6009 25.0447C38.6745 23.897 40.0628 23.0456 41.7658 22.4903C43.5057 21.8979 45.4493 21.5278 47.5966 21.3796C49.7808 21.2315 51.9651 21.1575 54.1493 21.1575C54.2233 20.7873 54.3159 20.269 54.427 19.6026C54.538 18.8992 54.5936 18.2883 54.5936 17.7701C54.5936 17.1037 54.4085 16.4929 54.0382 15.9375C53.705 15.3452 52.9831 15.049 51.8725 15.049C50.5768 15.049 49.6142 15.4378 48.9849 16.2152C48.3925 16.9556 48.0038 17.8627 47.8187 18.9362H39.7111L40.7662 13.9939ZM53.5384 23.7675H52.5389C51.4653 23.7675 50.5397 23.9156 49.7623 24.2117C49.0219 24.4709 48.4111 24.8226 47.9298 25.2668C47.4855 25.7111 47.1523 26.2109 46.9302 26.7662C46.7081 27.3215 46.597 27.8768 46.597 28.4321C46.597 29.3206 46.8191 29.987 47.2634 30.4313C47.7447 30.8755 48.3 31.0977 48.9293 31.0977C49.7068 31.0977 50.4658 30.82 51.2061 30.2647C51.9836 29.7094 52.4649 28.969 52.6499 28.0434L53.5384 23.7675ZM82.2903 15.4933C83.0678 14.7529 83.9378 14.0679 84.9003 13.4386C85.7518 12.9204 86.7513 12.4391 87.899 11.9948C89.0467 11.5506 90.3239 11.3284 91.7307 11.3284C93.6558 11.3284 95.2477 11.8282 96.5064 12.8278C97.7652 13.7903 98.3945 15.123 98.3945 16.826C98.3945 17.3074 98.339 17.8996 98.2279 18.6031C98.1168 19.2694 97.9873 19.9729 97.8392 20.7133C97.691 21.4536 97.5244 22.2126 97.3394 22.99C97.1913 23.7304 97.0617 24.3968 96.9507 24.9892L94.6183 35.8178H83.3454L86.3997 21.3241C86.4737 20.8428 86.5663 20.3616 86.6773 19.8803C86.7884 19.362 86.8439 18.8992 86.8439 18.492C86.8439 17.9367 86.6958 17.4924 86.3997 17.1592C86.1405 16.789 85.7333 16.6039 85.178 16.6039C84.5116 16.6039 83.8637 16.8445 83.2344 17.3258C82.642 17.8071 82.1793 18.2143 81.8461 18.5475L78.181 35.8178H66.8526L71.906 11.9393H80.9576L81.9572 15.4933H82.2903ZM114.828 15.4933C115.606 14.7529 116.476 14.0679 117.438 13.4386C118.29 12.9204 119.289 12.4391 120.437 11.9948C121.585 11.5506 122.862 11.3284 124.269 11.3284C126.194 11.3284 127.786 11.8282 129.044 12.8278C130.303 13.7903 130.933 15.123 130.933 16.826C130.933 17.3074 130.877 17.8996 130.766 18.6031C130.655 19.2694 130.525 19.9729 130.378 20.7133C130.229 21.4536 130.063 22.2126 129.878 22.99C129.729 23.7304 129.6 24.3968 129.489 24.9892L127.156 35.8178H115.883L118.938 21.3241C119.012 20.8428 119.104 20.3616 119.215 19.8803C119.326 19.362 119.382 18.8992 119.382 18.492C119.382 17.9367 119.234 17.4924 118.938 17.1592C118.678 16.789 118.271 16.6039 117.716 16.6039C117.05 16.6039 116.402 16.8445 115.772 17.3258C115.18 17.8071 114.717 18.2143 114.384 18.5475L110.719 35.8178H99.3906L104.444 11.9393H113.496L114.495 15.4933H114.828ZM145.934 11.9393L147.6 28.2655L156.374 11.9393H162.26L148.877 35.8178C147.545 38.1502 146.194 39.9456 144.824 41.2044C143.453 42.4631 141.954 43.3886 140.326 43.981C138.733 44.5733 136.956 44.9065 134.995 44.9805C133.069 45.0916 130.867 45.1471 128.386 45.1471L129.219 41.3154C130.441 41.3154 131.57 41.297 132.607 41.2599C133.68 41.2229 134.532 41.1118 135.161 40.9267C136.012 40.7046 136.623 40.2974 136.994 39.705C137.364 39.1497 137.549 38.3167 137.549 37.2061C137.549 36.4657 137.475 35.6142 137.327 34.6517C137.216 33.6892 137.087 32.671 136.938 31.5974L134.217 11.9393H145.934ZM192.551 35.8178L191.218 32.7636H190.885C190.627 33.0597 190.256 33.4115 189.774 33.8187C189.294 34.2259 188.664 34.6146 187.886 34.9849C187.109 35.3551 186.184 35.6512 185.11 35.8734C184.074 36.1325 182.87 36.2621 181.5 36.2621C180.02 36.2621 178.595 36.077 177.224 35.7068C175.892 35.3365 174.707 34.7627 173.67 33.9853C172.635 33.2078 171.802 32.2083 171.171 30.9866C170.542 29.7649 170.227 28.284 170.227 26.5441C170.227 25.1373 170.449 23.8046 170.894 22.5458C171.375 21.287 172.097 20.1395 173.059 19.1028C174.023 18.0662 175.245 17.1592 176.725 16.3818C178.206 15.6044 179.983 14.9935 182.056 14.5493C181.575 13.4757 181.223 12.6057 181 11.9393C180.778 11.2729 180.667 10.5139 180.667 9.66248C180.667 8.1816 180.964 6.84884 181.556 5.66421C182.149 4.47958 182.982 3.48002 184.055 2.66551C185.129 1.81407 186.406 1.16616 187.886 0.72191C189.405 0.240594 191.052 0 192.829 0C195.754 0 198.124 0.629314 199.937 1.88807C201.789 3.10976 202.713 4.9423 202.713 7.38569C202.713 8.68138 202.455 9.73648 201.936 10.551C201.455 11.3655 200.863 12.0319 200.159 12.5501C199.456 13.0684 198.697 13.4757 197.882 13.7718C197.105 14.0679 196.438 14.3456 195.883 14.6048L198.548 19.9358C199.659 18.3809 200.474 16.9186 200.992 15.5488H204.935C204.565 16.8816 204.028 18.1773 203.324 19.436C202.658 20.6577 201.936 21.8794 201.158 23.1011L200.603 23.9341L206.934 35.8178H192.551ZM183.666 17.6035C183.037 17.9737 182.5 18.7141 182.056 19.8247C181.649 20.9354 181.445 22.0645 181.445 23.2122C181.445 24.0636 181.575 24.8966 181.833 25.7111C182.093 26.5256 182.464 27.2475 182.944 27.8768C183.463 28.5061 184.074 29.0245 184.777 29.4317C185.48 29.802 186.276 29.987 187.164 29.987C187.757 29.987 188.201 29.913 188.497 29.7649C188.794 29.6168 189.072 29.4132 189.33 29.154L183.666 17.6035ZM193.606 3.05423C192.718 3.05423 192.071 3.25789 191.663 3.66508C191.293 4.03533 191.107 4.47959 191.107 4.99784C191.107 5.62715 191.349 6.38612 191.829 7.27463L194.106 11.5506C195.291 11.2544 196.18 10.6805 196.771 9.82908C197.364 8.97764 197.66 8.07054 197.66 7.10803C197.66 6.0714 197.309 5.14596 196.605 4.33146C195.938 3.48002 194.939 3.05423 193.606 3.05423ZM220.011 35.8178L227.507 0.555314H242.445C244.742 0.555314 246.741 0.795908 248.443 1.27722C250.184 1.72148 251.608 2.48045 252.719 3.55402C253.867 4.62758 254.718 6.03447 255.273 7.77441C255.866 9.51436 256.162 11.6432 256.162 14.1605C256.162 16.8631 255.81 19.51 255.107 22.1015C254.44 24.6931 253.312 27.0068 251.719 29.043C250.128 31.0792 248.036 32.7265 245.444 33.9853C242.89 35.207 239.724 35.8178 235.948 35.8178H220.011ZM235.226 31.9306C236.448 31.9306 237.522 31.4308 238.447 30.4313C239.411 29.3946 240.224 28.0989 240.891 26.5441C241.594 24.9521 242.168 23.2122 242.612 21.3241C243.094 19.399 243.464 17.548 243.723 15.7709C244.02 13.9939 244.222 12.402 244.333 10.9952C244.482 9.58848 244.556 8.58892 244.556 7.99654C244.556 6.84884 244.315 5.96034 243.834 5.33102C243.389 4.66465 242.594 4.33146 241.446 4.33146H238.78L232.838 31.9306H235.226ZM268.885 24.656C268.736 25.4705 268.625 26.2479 268.552 26.9883C268.514 27.7287 268.496 28.3951 268.496 28.9874C268.496 29.3206 268.514 29.6909 268.552 30.0981C268.589 30.5053 268.663 30.894 268.774 31.2642C268.922 31.5974 269.107 31.8936 269.329 32.1527C269.589 32.3749 269.94 32.4859 270.384 32.4859C270.717 32.4859 271.088 32.3749 271.495 32.1527C271.939 31.9306 272.365 31.6159 272.772 31.2087C273.216 30.8015 273.623 30.3017 273.994 29.7094C274.401 29.117 274.716 28.4506 274.938 27.7102H284.045L282.601 33.6521C281.861 34.1334 281.009 34.5406 280.047 34.8738C279.085 35.207 278.066 35.4846 276.992 35.7068C275.919 35.8918 274.827 36.0215 273.716 36.0955C272.605 36.2066 271.55 36.2621 270.551 36.2621C268.7 36.2621 266.979 36.0955 265.386 35.7623C263.794 35.4291 262.406 34.8553 261.222 34.0408C260.037 33.2263 259.093 32.1528 258.389 30.82C257.723 29.4502 257.39 27.7658 257.39 25.7666C257.39 23.9525 257.668 22.1755 258.223 20.4356C258.816 18.6957 259.778 17.1592 261.11 15.8265C262.481 14.4567 264.294 13.3646 266.553 12.5501C268.847 11.7356 271.699 11.3284 275.104 11.3284C278.807 11.3284 281.584 11.9022 283.434 13.0499C285.322 14.1976 286.266 15.9931 286.266 18.4365C286.266 19.436 286.118 20.5282 285.822 21.7128C285.526 22.8605 285.082 23.8415 284.489 24.656H268.885ZM276.271 18.0477C276.271 16.9 276.086 16.1226 275.715 15.7154C275.345 15.3082 274.9 15.1046 274.383 15.1046C273.79 15.1046 273.234 15.3082 272.717 15.7154C272.235 16.0857 271.791 16.6039 271.384 17.2703C270.977 17.8996 270.606 18.6401 270.273 19.4916C269.94 20.3061 269.662 21.176 269.44 22.1015H275.771C275.844 21.6573 275.919 21.1946 275.993 20.7133C276.067 20.3061 276.122 19.8618 276.16 19.3805C276.233 18.8992 276.271 18.4549 276.271 18.0477ZM302.031 15.4933C302.808 14.7529 303.677 14.0679 304.641 13.4386C305.492 12.9204 306.491 12.4391 307.639 11.9948C308.786 11.5506 310.063 11.3284 311.471 11.3284C313.395 11.3284 314.988 11.8282 316.247 12.8278C317.505 13.7903 318.135 15.123 318.135 16.826C318.135 17.3074 318.079 17.8996 317.968 18.6031C317.857 19.2694 317.727 19.9729 317.58 20.7133C317.431 21.4536 317.264 22.2126 317.08 22.99C316.931 23.7304 316.802 24.3968 316.691 24.9892L314.359 35.8178H303.086L306.14 21.3241C306.214 20.8428 306.307 20.3616 306.418 19.8803C306.529 19.362 306.584 18.8992 306.584 18.492C306.584 17.9367 306.436 17.4924 306.14 17.1592C305.88 16.789 305.474 16.6039 304.918 16.6039C304.252 16.6039 303.604 16.8445 302.975 17.3258C302.382 17.8071 301.92 18.2143 301.587 18.5475L297.921 35.8178H286.593L291.646 11.9393H300.698L301.698 15.4933H302.031ZM334.568 15.4933C335.346 14.7529 336.216 14.0679 337.178 13.4386C338.029 12.9204 339.029 12.4391 340.177 11.9948C341.325 11.5506 342.602 11.3284 344.009 11.3284C345.934 11.3284 347.525 11.8282 348.784 12.8278C350.044 13.7903 350.672 15.123 350.672 16.826C350.672 17.3074 350.617 17.8996 350.506 18.6031C350.395 19.2694 350.266 19.9729 350.117 20.7133C349.969 21.4536 349.802 22.2126 349.617 22.99C349.469 23.7304 349.34 24.3968 349.229 24.9892L346.896 35.8178H335.623L338.678 21.3241C338.751 20.8428 338.844 20.3616 338.955 19.8803C339.066 19.362 339.122 18.8992 339.122 18.492C339.122 17.9367 338.973 17.4924 338.678 17.1592C338.418 16.789 338.011 16.6039 337.456 16.6039C336.79 16.6039 336.141 16.8445 335.512 17.3258C334.92 17.8071 334.457 18.2143 334.124 18.5475L330.459 35.8178H319.131L324.184 11.9393H333.236L334.235 15.4933H334.568ZM365.674 11.9393L367.34 28.2655L376.114 11.9393H382L368.617 35.8178C367.284 38.1502 365.933 39.9456 364.563 41.2044C363.194 42.4631 361.695 43.3886 360.065 43.981C358.474 44.5733 356.697 44.9065 354.734 44.9805C352.81 45.0916 350.607 45.1471 348.126 45.1471L348.959 41.3154C350.18 41.3154 351.31 41.297 352.346 41.2599C353.421 41.2229 354.272 41.1118 354.901 40.9267C355.753 40.7046 356.364 40.2974 356.733 39.705C357.104 39.1497 357.288 38.3167 357.288 37.2061C357.288 36.4657 357.215 35.6142 357.066 34.6517C356.955 33.6892 356.826 32.671 356.678 31.5974L353.957 11.9393H365.674Z" fill="#E0E0E0"/>
<path d="M15.0795 82.3093L14.6306 79.9522L14.1441 78.2684L10.6271 78.1937L7.52167 78.2684L7.03527 79.7651L6.54888 82.3093H2.80734L8.90603 64.2751H13.4333L18.9707 82.3093H15.0795ZM11.2258 67.8296H10.9639L8.49447 75.3501L10.9265 75.3875L13.3584 75.3501L11.2258 67.8296ZM56.6636 75.7991C56.6885 77.9442 56.0649 79.6154 54.7928 80.8127C53.5206 81.9851 51.7122 82.5712 49.3675 82.5712C47.0478 82.5712 45.2893 81.9976 44.092 80.8501C42.9197 79.7027 42.3584 78.0689 42.4082 75.9488L42.4457 73.3671L42.3335 64.2751H46.1498L45.9628 75.4623C45.9379 78.1313 47.1351 79.4657 49.5546 79.4657C51.9741 79.4657 53.1714 78.1937 53.1465 75.6494L52.9594 64.2751H56.8506L56.6636 75.7991ZM93.1279 67.4181L89.7605 67.231H88.6007L88.4883 76.5848L88.638 82.3093H84.8591L85.0461 76.9215L84.8964 67.231H83.7741L80.3319 67.4181L80.07 67.0813L80.3319 64.2751H93.1279L93.3523 64.5745L93.1279 67.4181ZM124.118 64.0132C126.762 64.0132 128.77 64.7866 130.141 66.333C131.514 67.8795 132.2 70.137 132.2 73.1052C132.2 76.0734 131.451 78.4057 129.954 80.1019C128.483 81.773 126.425 82.6087 123.781 82.6087C121.162 82.6087 119.167 81.823 117.795 80.2514C116.423 78.6551 115.737 76.3728 115.737 73.4045C115.737 70.4362 116.473 68.1289 117.944 66.4827C119.441 64.8364 121.499 64.0132 124.118 64.0132ZM123.968 67.0813C122.472 67.0813 121.387 67.5553 120.713 68.503C120.04 69.426 119.703 71.01 119.703 73.2549C119.703 75.4997 120.027 77.1335 120.676 78.1562C121.349 79.154 122.447 79.6529 123.968 79.6529C125.49 79.6529 126.575 79.1914 127.223 78.2684C127.897 77.3207 128.234 75.7242 128.234 73.4793C128.234 71.2095 127.897 69.5757 127.223 68.5779C126.575 67.5802 125.49 67.0813 123.968 67.0813ZM191.229 75.1256C192.725 77.4453 194.172 79.5406 195.569 81.4114L195.494 81.823C194.271 82.2719 193.037 82.5338 191.79 82.6087L191.378 82.2719C190.031 79.9522 188.934 77.9442 188.085 76.248H185.391V76.5848L185.541 82.3093H181.725L181.95 76.9215L181.725 64.2751L188.684 64.2377C190.58 64.2377 192.04 64.6993 193.062 65.6221C194.085 66.545 194.595 67.867 194.595 69.5881C194.595 70.7355 194.297 71.7957 193.698 72.7684C193.1 73.7412 192.276 74.5269 191.229 75.1256ZM190.592 69.9624C190.592 68.0665 189.545 67.0938 187.45 67.0438L185.541 67.1562L185.466 73.2549L188.235 73.4045C189.831 72.8558 190.618 71.7084 190.592 69.9624ZM231.041 79.4657L230.779 82.3093H219.442L219.666 76.9215L219.442 64.2751H230.891L231.116 64.5745L230.854 67.4181L226.513 67.2684H223.259L223.184 71.6085L226.326 71.6834L229.244 71.6085L229.469 71.8704L229.207 74.714L226.027 74.6391L223.146 74.6766L223.109 76.5848L223.184 79.3161L226.363 79.3535L230.816 79.1665L231.041 79.4657ZM261.85 64.2377C263.72 64.2377 265.155 64.7116 266.154 65.6596C267.176 66.6073 267.686 67.8795 267.686 69.4759C267.686 71.0473 267.388 72.3319 266.789 73.3296C266.215 74.3274 265.367 75.1131 264.245 75.6869C263.147 76.2605 261.85 76.5474 260.354 76.5474H258.557V76.5848L258.707 82.3093H254.891L255.116 76.9215L254.891 64.2751L261.85 64.2377ZM263.758 70.0746C263.758 69.0519 263.497 68.3035 262.973 67.8296C262.474 67.3308 261.688 67.0689 260.616 67.0438L258.707 67.1562L258.632 73.629L261.176 73.7787C262.898 73.2549 263.758 72.0201 263.758 70.0746ZM301.878 82.3093L301.43 79.9522L300.943 78.2684L297.427 78.1937L294.321 78.2684L293.834 79.7651L293.348 82.3093H289.607L295.705 64.2751H300.233L305.769 82.3093H301.878ZM298.025 67.8296H297.763L295.293 75.3501L297.725 75.3875L300.158 75.3501L298.025 67.8296ZM333.398 82.3093H329.582L329.806 76.9215L329.582 64.2751H333.473L333.248 76.5848L333.398 82.3093ZM368.552 75.1256C370.049 77.4453 371.495 79.5406 372.893 81.4114L372.818 81.823C371.596 82.2719 370.36 82.5338 369.114 82.6087L368.702 82.2719C367.355 79.9522 366.257 77.9442 365.41 76.248H362.716V76.5848L362.865 82.3093H359.049L359.273 76.9215L359.049 64.2751L366.008 64.2377C367.904 64.2377 369.363 64.6993 370.386 65.6221C371.409 66.545 371.92 67.867 371.92 69.5881C371.92 70.7355 371.621 71.7957 371.022 72.7684C370.424 73.7412 369.6 74.5269 368.552 75.1256ZM367.917 69.9624C367.917 68.0665 366.868 67.0938 364.774 67.0438L362.865 67.1562L362.791 73.2549L365.559 73.4045C367.156 72.8558 367.941 71.7084 367.917 69.9624Z" fill="#E0E0E0"/>
</svg>
